<?xml version="1.0"?>
<svg version="1.1" xmlns="http://www.w3.org/2000/svg" width="200px" height="45px" style=""><path fill="#c73232" d="M8.80419921875,17.66162109375q0-0.9228515625,0.31640625-1.2392578125t0.88330078125-0.31640625q0.158203125,0,0.336181640625,0.0263671875t0.336181640625,0.0791015625q0.88330078125-0.17138671875,1.67431640625-0.17138671875q1.27880859375,0,2.3203125,0.4482421875q1.67431640625,0.7119140625,2.7685546875,2.109375t1.6083984375,3.28271484375t0.51416015625,3.86279296875q0,1.107421875-0.151611328125,2.30712890625t-0.586669921875,2.22802734375q-0.38232421875,0.9228515625-1.0546875,1.931396484375t-1.522705078125,1.91162109375t-1.83251953125,1.58203125t-1.984130859375,0.916259765625l0,0.10546875q0,0.263671875-0.138427734375,0.428466796875t-0.336181640625,0.25048828125t-0.454833984375,0.112060546875t-0.481201171875,0.0263671875q-0.1318359375,0-0.375732421875-0.0263671875t-0.474609375-0.098876953125t-0.388916015625-0.191162109375t-0.158203125-0.32958984375q0-2.3994140625-0.125244140625-4.805419921875t-0.283447265625-4.81201171875t-0.283447265625-4.805419921875t-0.125244140625-4.81201171875z M11.2958984375,16.9892578125q0.1318359375,1.265625,0.17138671875,2.524658203125t0.11865234375,2.524658203125q0.2109375,3.26953125,0.48779296875,6.506103515625t0.32958984375,6.506103515625q1.265625-0.83056640625,2.168701171875-1.8984375t1.483154296875-2.3203125t0.850341796875-2.630126953125t0.270263671875-2.841064453125q0-1.0546875-0.1845703125-2.3203125t-0.6328125-2.43896484375t-1.206298828125-2.12255859375t-1.891845703125-1.35791015625q-0.2373046875-0.0791015625-0.573486328125-0.1318359375t-1.074462890625-0.052734375q-0.0791015625,0-0.158203125,0.0263671875t-0.158203125,0.0263671875z M22.247114257813,31.08251953125q0-0.896484375,0.243896484375-1.72705078125t0.731689453125-1.483154296875t1.219482421875-1.04150390625t1.694091796875-0.388916015625q0.59326171875,0,1.311767578125,0.177978515625t1.351318359375,0.52734375t1.0546875,0.889892578125t0.421875,1.2392578125q0,0.32958984375-0.112060546875,0.5009765625t-0.454833984375,0.17138671875l-0.14501953125-0.0263671875q0.38232421875,1.0283203125,0.6591796875,2.109375t0.54052734375,2.162109375q0.10546875,0.2109375,0.158203125,0.375732421875t0.052734375,0.322998046875q0,0.2109375-0.11865234375,0.349365234375t-0.309814453125,0.204345703125t-0.3955078125,0.09228515625t-0.362548828125,0.0263671875q-0.56689453125,0-0.850341796875-0.19775390625t-0.40869140625-0.54052734375t-0.151611328125-0.771240234375t-0.10546875-0.863525390625q-0.158203125,0.51416015625-0.415283203125,1.001953125t-0.6064453125,0.876708984375t-0.823974609375,0.61962890625t-1.06787109375,0.230712890625q-0.8701171875,0-1.46337890625-0.5009765625t-0.955810546875-1.232666015625t-0.52734375-1.562255859375t-0.164794921875-1.54248046875z M24.119184570312,30.89794921875q0,0.48779296875,0.06591796875,1.0283203125t0.217529296875,1.06787109375t0.388916015625,0.995361328125t0.59326171875,0.823974609375q0.64599609375-0.69873046875,0.955810546875-1.70068359375t0.5537109375-1.931396484375t0.5537109375-1.59521484375t0.955810546875-0.665771484375q0.40869140625,0,0.685546875,0.14501953125q-0.1318359375-0.32958984375-0.43505859375-0.639404296875t-0.678955078125-0.56689453125t-0.77783203125-0.421875t-0.758056640625-0.164794921875q-0.10546875,0-0.243896484375,0.032958984375t-0.217529296875,0.006591796875q-0.54052734375,0.158203125-0.889892578125,0.547119140625t-0.56689453125,0.916259765625t-0.309814453125,1.0810546875t-0.09228515625,1.04150390625z M33.7058984375,27.780029296875q-0.032958984375-0.441650390625,0.052734375-0.810791015625t0.3427734375-0.599853515625t0.823974609375-0.230712890625q0.1318359375,0,0.322998046875,0.032958984375t0.375732421875,0.085693359375t0.309814453125,0.158203125t0.125244140625,0.2900390625l0,1.48974609375q0.51416015625-0.59326171875,1.12060546875-0.850341796875t1.38427734375-0.257080078125q0.59326171875,0,1.17333984375,0.270263671875t1.09423828125,0.718505859375t0.889892578125,0.98876953125t0.547119140625,1.0810546875q0.10546875-0.48779296875,0.2373046875-1.193115234375t0.388916015625-1.351318359375t0.678955078125-1.107421875t1.12060546875-0.46142578125q0.75146484375,0,1.265625,0.54052734375t0.837158203125,1.404052734375t0.48779296875,1.931396484375t0.243896484375,2.109375t0.0791015625,1.944580078125l0,1.417236328125q0,0.158203125-0.11865234375,0.257080078125t-0.296630859375,0.151611328125t-0.369140625,0.06591796875t-0.296630859375,0.01318359375q-0.40869140625,0-0.744873046875-0.125244140625t-0.336181640625-0.639404296875l0-1.1865234375t-0.0263671875-1.535888671875t-0.09228515625-1.64794921875t-0.17138671875-1.496337890625t-0.270263671875-1.0810546875t-0.402099609375-0.421875q-0.32958984375,0-0.474609375,0.369140625t-0.243896484375,0.93603515625t-0.151611328125,1.19970703125t-0.14501953125,1.19970703125t-0.296630859375,0.929443359375t-0.560302734375,0.362548828125q-0.38232421875,0-0.67236328125-0.362548828125t-0.573486328125-0.903076171875t-0.56689453125-1.16015625t-0.626220703125-1.16015625q-0.3427734375-0.5537109375-0.73828125-0.896484375q-0.35595703125-0.32958984375-0.80419921875-0.31640625l-0.06591796875,0q-0.59326171875,0.0263671875-0.929443359375,0.428466796875t-0.51416015625,0.982177734375t-0.217529296875,1.245849609375t-0.03955078125,1.166748046875q0,0.474609375,0.0791015625,1.107421875q0.052734375,0.421875,0.052734375,0.80419921875q0,0.19775390625-0.01318359375,0.38232421875q-0.03955078125,0.5537109375-0.296630859375,0.929443359375t-0.955810546875,0.375732421875q-0.263671875,0-0.6591796875-0.052734375t-0.52734375-0.35595703125q-0.30322265625-0.54052734375-0.46142578125-1.364501953125t-0.2373046875-1.70068359375t-0.09228515625-1.740234375t-0.01318359375-1.483154296875q0-0.43505859375-0.032958984375-0.876708984375z M50.332651367187,30.76611328125q0-1.212890625,0.283447265625-2.379638671875t0.481201171875-2.326904296875q0.052734375-0.30322265625,0.415283203125-0.375732421875t0.613037109375-0.072509765625q0.43505859375,0,0.69873046875,0.1318359375q0.10546875,0.052734375,0.19775390625,0.11865234375t0.09228515625,0.17138671875q0,1.1337890625-0.270263671875,2.21484375t-0.270263671875,2.2939453125q0,0.40869140625,0.059326171875,0.771240234375t0.112060546875,0.718505859375l0.0791015625,0.38232421875q0,0.10546875,0.01318359375,0.1845703125t0.03955078125,0.1845703125q0,0.2373046875-0.336181640625,0.322998046875t-0.586669921875,0.085693359375q-0.38232421875,0-0.705322265625-0.151611328125t-0.507568359375-0.520751953125l-0.1845703125-0.38232421875q-0.158203125-0.30322265625-0.158203125-0.678955078125t-0.06591796875-0.692138671875z M51.176401367187,22.82958984375l0-0.25048828125q0-0.61962890625,0.309814453125-1.107421875t0.929443359375-0.48779296875q0.0791015625,0,0.151611328125,0.01318359375t0.151611328125,0.01318359375q0.158203125,0.0263671875,0.415283203125,0.125244140625t0.257080078125,0.309814453125l0,0.0263671875q-0.052734375,0.10546875-0.06591796875,0.217529296875t-0.06591796875,0.191162109375l0.0263671875-0.0263671875q-0.158203125,0.40869140625-0.257080078125,0.6591796875t-0.217529296875,0.402099609375t-0.296630859375,0.217529296875t-0.507568359375,0.06591796875q-0.052734375,0-0.1845703125-0.01318359375t-0.283447265625-0.052734375t-0.257080078125-0.10546875t-0.10546875-0.19775390625z M56.08953125,35.7626953125q0-0.38232421875,0.032958984375-0.80419921875t0.059326171875-0.791015625l0.0791015625-1.9775390625q0.1318359375-2.373046875,0.322998046875-4.6669921875t0.322998046875-4.640625q0.0791015625-1.2919921875,0.11865234375-2.537841796875t0.11865234375-2.537841796875q-0.052734375-0.10546875-0.052734375-0.14501953125q0-0.1845703125,0.138427734375-0.2900390625t0.322998046875-0.177978515625t0.388916015625-0.098876953125t0.309814453125-0.0263671875l0.30322265625,0q0.40869140625,0.052734375,0.59326171875,0.257080078125t0.2373046875,0.48779296875t0.0263671875,0.6064453125t-0.0263671875,0.599853515625q0,1.91162109375-0.09228515625,3.895751953125t-0.2109375,3.9814453125t-0.217529296875,3.99462890625t-0.098876953125,3.948486328125l0,0.9228515625q0,0.61962890625-0.349365234375,0.8173828125t-0.968994140625,0.19775390625q-0.54052734375,0-0.94921875-0.2373046875t-0.40869140625-0.77783203125z M62.136450195312,31.08251953125q0-0.896484375,0.243896484375-1.72705078125t0.731689453125-1.483154296875t1.219482421875-1.04150390625t1.694091796875-0.388916015625q0.59326171875,0,1.311767578125,0.177978515625t1.351318359375,0.52734375t1.0546875,0.889892578125t0.421875,1.2392578125q0,0.32958984375-0.112060546875,0.5009765625t-0.454833984375,0.17138671875l-0.14501953125-0.0263671875q0.38232421875,1.0283203125,0.6591796875,2.109375t0.54052734375,2.162109375q0.10546875,0.2109375,0.158203125,0.375732421875t0.052734375,0.322998046875q0,0.2109375-0.11865234375,0.349365234375t-0.309814453125,0.204345703125t-0.3955078125,0.09228515625t-0.362548828125,0.0263671875q-0.56689453125,0-0.850341796875-0.19775390625t-0.40869140625-0.54052734375t-0.151611328125-0.771240234375t-0.10546875-0.863525390625q-0.158203125,0.51416015625-0.415283203125,1.001953125t-0.6064453125,0.876708984375t-0.823974609375,0.61962890625t-1.06787109375,0.230712890625q-0.8701171875,0-1.46337890625-0.5009765625t-0.955810546875-1.232666015625t-0.52734375-1.562255859375t-0.164794921875-1.54248046875z M64.008520507812,30.89794921875q0,0.48779296875,0.06591796875,1.0283203125t0.217529296875,1.06787109375t0.388916015625,0.995361328125t0.59326171875,0.823974609375q0.64599609375-0.69873046875,0.955810546875-1.70068359375t0.5537109375-1.931396484375t0.5537109375-1.59521484375t0.955810546875-0.665771484375q0.40869140625,0,0.685546875,0.14501953125q-0.1318359375-0.32958984375-0.43505859375-0.639404296875t-0.678955078125-0.56689453125t-0.77783203125-0.421875t-0.758056640625-0.164794921875q-0.10546875,0-0.243896484375,0.032958984375t-0.217529296875,0.006591796875q-0.54052734375,0.158203125-0.889892578125,0.547119140625t-0.56689453125,0.916259765625t-0.309814453125,1.0810546875t-0.09228515625,1.04150390625z M73.562275390625,27.39111328125q0-0.54052734375,0.191162109375-0.90966796875t0.810791015625-0.369140625q0.2373046875,0,0.59326171875,0.072509765625t0.40869140625,0.362548828125q0.1318359375,0.77783203125,0.14501953125,1.6875t0.09228515625,1.7138671875q0.30322265625-0.59326171875,0.77783203125-1.27880859375t1.0810546875-1.265625t1.318359375-0.96240234375t1.4501953125-0.38232421875q0.052734375,0,0.19775390625,0.03955078125t0.270263671875,0.112060546875t0.151611328125,0.164794921875t-0.14501953125,0.17138671875q-0.052734375,0.158203125-0.22412109375,0.191162109375t-0.30322265625,0.032958984375q-0.0791015625,0-0.25048828125-0.06591796875q-0.9755859375,0.51416015625-1.6611328125,1.3974609375t-1.12060546875,1.957763671875t-0.6328125,2.267578125t-0.19775390625,2.326904296875q0,0.56689453125-0.257080078125,0.685546875t-0.823974609375,0.11865234375q-0.30322265625,0-0.639404296875-0.06591796875t-0.468017578125-0.421875q-0.2373046875-0.75146484375-0.388916015625-1.72705078125t-0.230712890625-2.010498046875t-0.112060546875-2.036865234375t-0.032958984375-1.80615234375z M82.931459960937,31.623046875q0-0.9228515625,0.204345703125-2.17529296875t0.692138671875-2.373046875t1.285400390625-1.905029296875t2.010498046875-0.784423828125q1.1337890625,0,1.70068359375,0.652587890625t0.56689453125,1.760009765625q0,0.72509765625-0.270263671875,1.588623046875t-0.771240234375,1.634765625t-1.1865234375,1.285400390625t-1.529296875,0.51416015625l-0.3427734375-0.0263671875q0,0.35595703125,0.10546875,0.955810546875t0.309814453125,1.193115234375t0.52734375,1.04150390625t0.784423828125,0.4482421875q0.67236328125,0,1.2919921875-0.54052734375t1.17333984375-1.19970703125t1.0283203125-1.19970703125t0.8701171875-0.54052734375q0.2109375,0,0.43505859375,0.06591796875t0.25048828125,0.369140625q0,0.1845703125-0.098876953125,0.30322265625t-0.177978515625,0.263671875q-0.40869140625,0.69873046875-0.889892578125,1.33154296875t-1.087646484375,1.14697265625t-1.324951171875,0.810791015625t-1.588623046875,0.296630859375q-1.1337890625,0-1.88525390625-0.402099609375t-1.212890625-1.0810546875t-0.665771484375-1.56884765625t-0.204345703125-1.865478515625z M85.291323242187,30.62109375l0.369140625,0.32958984375q0.263671875,0.2373046875,0.52734375,0.10546875t0.474609375-0.481201171875t0.388916015625-0.863525390625t0.31640625-1.0546875t0.204345703125-1.0546875t0.06591796875-0.85693359375l0-0.4482421875t-0.03955078125-0.474609375t-0.138427734375-0.375732421875t-0.309814453125-0.191162109375q-0.06591796875-0.01318359375-0.11865234375-0.01318359375q-0.4482421875,0-0.7646484375,0.56689453125q-0.3427734375,0.6328125-0.5537109375,1.535888671875t-0.30322265625,1.852294921875t-0.11865234375,1.423828125z M99.006743164062,35.69677734375q0-0.0791015625,0.052734375-0.560302734375t0.138427734375-1.17333984375t0.191162109375-1.48974609375t0.1845703125-1.509521484375t0.138427734375-1.25244140625t0.059326171875-0.72509765625q-0.10546875-0.052734375-0.257080078125-0.151611328125t-0.151611328125-0.230712890625q0-0.1845703125,0.177978515625-0.296630859375t0.309814453125-0.164794921875q0.052734375-0.67236328125,0.1318359375-1.8720703125t0.243896484375-2.590576171875t0.46142578125-2.8212890625t0.784423828125-2.59716796875t1.17333984375-1.905029296875t1.6875-0.73828125t1.6611328125,0.6328125t1.074462890625,1.64794921875t0.6328125,2.25439453125t0.32958984375,2.46533203125t0.138427734375,2.2939453125t0.052734375,1.7138671875q0.0263671875,0.40869140625,0.19775390625,0.547119140625t0.375732421875,0.191162109375t0.369140625,0.11865234375t0.164794921875,0.32958984375q0,0.30322265625-0.369140625,0.421875t-0.580078125,0.14501953125q0.1318359375,1.64794921875,0.362548828125,3.2431640625t0.613037109375,3.216796875q0.052734375,0.30322265625,0.14501953125,0.613037109375t0.09228515625,0.599853515625q0,0.2109375-0.14501953125,0.349365234375t-0.375732421875,0.217529296875t-0.46142578125,0.10546875t-0.388916015625,0.0263671875q-0.59326171875,0-1.001953125-0.22412109375t-0.54052734375-0.85693359375q-0.35595703125-1.70068359375-0.69873046875-3.57275390625q-0.2900390625-1.62158203125-0.2900390625-3.15087890625q0-0.2373046875,0.01318359375-0.474609375q-1.107421875,0-2.22802734375,0.052734375t-2.14892578125,0.3955078125q-0.0263671875,0.35595703125-0.1318359375,1.3447265625t-0.2373046875,2.12255859375t-0.270263671875,2.168701171875t-0.164794921875,1.469970703125q-0.0263671875,0.1845703125-0.270263671875,0.349365234375t-0.52734375,0.177978515625t-0.5009765625-0.177978515625t-0.217529296875-0.678955078125z M101.47207519531,27.70751953125q1.0283203125-0.2373046875,2.063232421875-0.27685546875t2.089599609375-0.09228515625q-0.052734375-0.32958984375-0.0263671875-0.678955078125t0.0263671875-0.705322265625q0-0.77783203125-0.03955078125-1.80615234375t-0.11865234375-2.0830078125t-0.204345703125-2.076416015625t-0.283447265625-1.8193359375t-0.336181640625-1.272216796875t-0.388916015625-0.474609375q-0.40869140625,0.0263671875-0.771240234375,0.705322265625t-0.6591796875,1.72705078125t-0.54052734375,2.3466796875t-0.40869140625,2.537841796875t-0.270263671875,2.30712890625t-0.1318359375,1.6611328125z M112.29145507812,30.92431640625q0-1.0283203125,0.217529296875-1.865478515625t0.692138671875-1.417236328125t1.245849609375-0.903076171875t1.878662109375-0.322998046875q0.61962890625,0,1.265625,0.164794921875t1.107421875,0.613037109375q0-0.263671875,0.052734375-1.087646484375t0.1318359375-1.918212890625t0.164794921875-2.2939453125t0.151611328125-2.22802734375t0.11865234375-1.72705078125t0.0791015625-0.791015625q0.1318359375-0.38232421875,0.48779296875-0.454833984375t0.67236328125-0.072509765625q0.83056640625,0,1.021728515625,0.263671875t0.191162109375,1.0546875q0,2.88720703125-0.257080078125,5.748046875t-0.257080078125,5.748046875q0,1.85888671875,0.072509765625,3.737548828125t0.520751953125,3.697998046875l0.14501953125,0.1318359375l0.0791015625,0.2373046875l-0.19775390625,0.30322265625q-0.5009765625,0.31640625-1.16015625,0.31640625l-0.052734375,0q-0.67236328125,0-1.2392578125-0.31640625q-0.2109375-0.1318359375-0.349365234375-0.784423828125t-0.217529296875-1.43701171875t-0.11865234375-1.509521484375t-0.06591796875-1.0283203125q-0.46142578125,1.0546875-1.259033203125,1.812744140625t-2.010498046875,0.758056640625q-0.94921875,0-1.5556640625-0.40869140625t-0.942626953125-1.04150390625t-0.474609375-1.417236328125t-0.138427734375-1.562255859375z M113.88666992187,31.00341796875q0,0.30322265625,0.072509765625,0.896484375t0.230712890625,1.1865234375t0.441650390625,1.0546875t0.744873046875,0.46142578125q0.61962890625-0.30322265625,1.12060546875-1.008544921875t0.863525390625-1.5556640625t0.56689453125-1.70068359375t0.204345703125-1.469970703125q0-0.77783203125-0.56689453125-1.2919921875t-1.35791015625-0.51416015625q-0.2373046875,0-0.481201171875,0.09228515625t-0.454833984375,0.2109375q-0.48779296875,0.46142578125-0.758056640625,0.837158203125t-0.40869140625,0.77783203125t-0.177978515625,0.889892578125t-0.03955078125,1.1337890625z M124.77196777344,31.623046875q0-0.9228515625,0.204345703125-2.17529296875t0.692138671875-2.373046875t1.285400390625-1.905029296875t2.010498046875-0.784423828125q1.1337890625,0,1.70068359375,0.652587890625t0.56689453125,1.760009765625q0,0.72509765625-0.270263671875,1.588623046875t-0.771240234375,1.634765625t-1.1865234375,1.285400390625t-1.529296875,0.51416015625l-0.3427734375-0.0263671875q0,0.35595703125,0.10546875,0.955810546875t0.309814453125,1.193115234375t0.52734375,1.04150390625t0.784423828125,0.4482421875q0.67236328125,0,1.2919921875-0.54052734375t1.17333984375-1.19970703125t1.0283203125-1.19970703125t0.8701171875-0.54052734375q0.2109375,0,0.43505859375,0.06591796875t0.25048828125,0.369140625q0,0.1845703125-0.098876953125,0.30322265625t-0.177978515625,0.263671875q-0.40869140625,0.69873046875-0.889892578125,1.33154296875t-1.087646484375,1.14697265625t-1.324951171875,0.810791015625t-1.588623046875,0.296630859375q-1.1337890625,0-1.88525390625-0.402099609375t-1.212890625-1.0810546875t-0.665771484375-1.56884765625t-0.204345703125-1.865478515625z M127.13183105469,30.62109375l0.369140625,0.32958984375q0.263671875,0.2373046875,0.52734375,0.10546875t0.474609375-0.481201171875t0.388916015625-0.863525390625t0.31640625-1.0546875t0.204345703125-1.0546875t0.06591796875-0.85693359375l0-0.4482421875t-0.03955078125-0.474609375t-0.138427734375-0.375732421875t-0.309814453125-0.191162109375q-0.06591796875-0.01318359375-0.11865234375-0.01318359375q-0.4482421875,0-0.7646484375,0.56689453125q-0.3427734375,0.6328125-0.5537109375,1.535888671875t-0.30322265625,1.852294921875t-0.11865234375,1.423828125z M135.5254296875,31.3330078125q0-0.75146484375,0.191162109375-1.549072265625t0.6064453125-1.43701171875t1.048095703125-1.04150390625t1.529296875-0.402099609375q0.67236328125,0,1.417236328125,0.230712890625t1.364501953125,0.6591796875t1.008544921875,1.048095703125t0.388916015625,1.38427734375q0,0.9228515625-0.336181640625,1.75341796875t-0.942626953125,1.483154296875t-1.417236328125,1.0283203125t-1.760009765625,0.375732421875q-0.77783203125,0-1.35791015625-0.283447265625t-0.968994140625-0.758056640625t-0.580078125-1.12060546875t-0.191162109375-1.37109375z M137.46341796875,31.306640625q0,0.2373046875,0.072509765625,0.69873046875t0.217529296875,0.903076171875t0.375732421875,0.7646484375t0.560302734375,0.296630859375q0.69873046875-0.0791015625,1.153564453125-0.454833984375t0.73828125-0.916259765625t0.3955078125-1.17333984375t0.112060546875-1.19970703125q0-0.72509765625-0.283447265625-1.212890625t-0.929443359375-0.791015625q0,0.0263671875,0.0263671875,0.0263671875t0.0263671875-0.0263671875l-0.32958984375-0.0791015625q-0.1318359375-0.052734375-0.322998046875-0.11865234375t-0.375732421875-0.2900390625q-0.51416015625,0.1845703125-0.797607421875,0.474609375t-0.428466796875,0.705322265625t-0.177978515625,0.995361328125t-0.032958984375,1.3974609375z M145.51424316406,28.142578125q0-0.38232421875,0.217529296875-0.5009765625t0.547119140625-0.11865234375q0.54052734375,0,0.823974609375,0.204345703125t0.283447265625,0.718505859375q0,0.61962890625,0.09228515625,1.549072265625t0.270263671875,1.80615234375t0.421875,1.509521484375t0.507568359375,0.6328125q0.48779296875,0,0.863525390625-0.75146484375t0.6591796875-1.845703125t0.48779296875-2.353271484375t0.283447265625-2.247802734375q0.052734375-0.54052734375,0.257080078125-0.784423828125t0.744873046875-0.243896484375q0.61962890625,0,0.903076171875,0.51416015625t0.362548828125,1.265625q0.06591796875,0.64599609375,0.06591796875,1.3447265625l0,0.22412109375l0,0.52734375q0,0.5009765625,0.01318359375,0.896484375l0.38232421875,8.08154296875l0.052734375,1.3447265625q0.0263671875,0.1845703125,0.03955078125,0.349365234375t0.01318359375,0.349365234375q0,0.75146484375-0.322998046875,0.968994140625t-1.048095703125,0.217529296875q-0.158203125,0-0.402099609375-0.0263671875t-0.474609375-0.10546875t-0.3955078125-0.217529296875t-0.164794921875-0.349365234375l0.052734375-0.1318359375q0.06591796875-0.791015625,0.06591796875-1.6611328125l0-0.27685546875q-0.01318359375-1.0283203125-0.06591796875-2.0830078125t-0.11865234375-2.109375t-0.06591796875-2.0302734375q-0.1845703125,0.40869140625-0.428466796875,0.84375t-0.56689453125,0.784423828125t-0.731689453125,0.580078125t-0.9228515625,0.230712890625q-0.75146484375,0-1.2392578125-0.3955078125t-0.758056640625-1.0283203125t-0.388916015625-1.417236328125t-0.158203125-1.56884765625t-0.052734375-1.496337890625t-0.10546875-1.19970703125z M156.50500976563,31.623046875q0-0.9228515625,0.204345703125-2.17529296875t0.692138671875-2.373046875t1.285400390625-1.905029296875t2.010498046875-0.784423828125q1.1337890625,0,1.70068359375,0.652587890625t0.56689453125,1.760009765625q0,0.72509765625-0.270263671875,1.588623046875t-0.771240234375,1.634765625t-1.1865234375,1.285400390625t-1.529296875,0.51416015625l-0.3427734375-0.0263671875q0,0.35595703125,0.10546875,0.955810546875t0.309814453125,1.193115234375t0.52734375,1.04150390625t0.784423828125,0.4482421875q0.67236328125,0,1.2919921875-0.54052734375t1.17333984375-1.19970703125t1.0283203125-1.19970703125t0.8701171875-0.54052734375q0.2109375,0,0.43505859375,0.06591796875t0.25048828125,0.369140625q0,0.1845703125-0.098876953125,0.30322265625t-0.177978515625,0.263671875q-0.40869140625,0.69873046875-0.889892578125,1.33154296875t-1.087646484375,1.14697265625t-1.324951171875,0.810791015625t-1.588623046875,0.296630859375q-1.1337890625,0-1.88525390625-0.402099609375t-1.212890625-1.0810546875t-0.665771484375-1.56884765625t-0.204345703125-1.865478515625z M158.86487304688,30.62109375l0.369140625,0.32958984375q0.263671875,0.2373046875,0.52734375,0.10546875t0.474609375-0.481201171875t0.388916015625-0.863525390625t0.31640625-1.0546875t0.204345703125-1.0546875t0.06591796875-0.85693359375l0-0.4482421875t-0.03955078125-0.474609375t-0.138427734375-0.375732421875t-0.309814453125-0.191162109375q-0.06591796875-0.01318359375-0.11865234375-0.01318359375q-0.4482421875,0-0.7646484375,0.56689453125q-0.3427734375,0.6328125-0.5537109375,1.535888671875t-0.30322265625,1.852294921875t-0.11865234375,1.423828125z"/><path fill="#" d=""/></svg>
